<svg width="201" height="195" viewBox="0 0 201 195" fill="none" xmlns="http://www.w3.org/2000/svg">
<g clip-path="url(#clip0_516_2182)">
<path d="M198.926 103.39L197.626 105.013C196.549 106.362 195.861 107.965 195.633 109.657C195.406 111.349 195.646 113.07 196.33 114.642L197.146 116.516C198.001 118.484 198.157 120.672 197.588 122.735C197.02 124.798 195.76 126.619 194.007 127.911L192.329 129.145C190.931 130.174 189.84 131.543 189.167 133.115C188.493 134.687 188.263 136.404 188.498 138.09L188.784 140.12C189.082 142.236 188.646 144.388 187.545 146.237C186.443 148.086 184.738 149.526 182.699 150.331L180.749 151.095C179.12 151.739 177.697 152.792 176.625 154.145C175.553 155.498 174.872 157.104 174.65 158.797L174.387 160.831C174.111 162.948 173.117 164.916 171.561 166.424C170.005 167.933 167.977 168.896 165.795 169.163L163.702 169.418C161.956 169.633 160.301 170.294 158.906 171.333C157.511 172.373 156.427 173.754 155.763 175.335L154.971 177.227C154.143 179.205 152.659 180.859 150.754 181.928C148.849 182.997 146.631 183.42 144.451 183.13L142.358 182.853C140.62 182.624 138.85 182.848 137.23 183.501C135.61 184.154 134.198 185.213 133.138 186.569L131.847 188.215C130.515 189.917 128.638 191.14 126.51 191.691C124.382 192.243 122.126 192.091 120.097 191.261L118.165 190.469C116.545 189.805 114.771 189.572 113.027 189.793C111.283 190.014 109.631 190.681 108.24 191.726L106.567 192.987C104.829 194.292 102.693 195 100.496 195C98.298 195 96.1625 194.292 94.4244 192.987L92.751 191.726C91.3605 190.681 89.7082 190.014 87.964 189.793C86.2198 189.572 84.4464 189.805 82.826 190.469L80.8944 191.261C78.8664 192.089 76.6121 192.239 74.4864 191.688C72.3607 191.136 70.4845 189.915 69.1531 188.215L67.8807 186.587C66.821 185.231 65.409 184.172 63.789 183.519C62.169 182.866 60.3993 182.642 58.661 182.871L56.5681 183.148C54.3872 183.438 52.169 183.015 50.2634 181.946C48.3578 180.877 46.8732 179.223 46.0437 177.245L45.2554 175.353C44.5918 173.772 43.5069 172.392 42.112 171.352C40.7171 170.312 39.0623 169.651 37.3172 169.436L35.2197 169.181C33.0377 168.913 31.0096 167.949 29.4547 166.439C27.8999 164.93 26.9067 162.962 26.6315 160.845L26.3688 158.814C26.1477 157.121 25.4664 155.516 24.3946 154.162C23.3228 152.809 21.8993 151.757 20.2699 151.113L18.3199 150.344C16.2808 149.541 14.5757 148.101 13.4737 146.253C12.3718 144.405 11.9359 142.254 12.2349 140.138L12.5207 138.108C12.7566 136.421 12.5261 134.704 11.853 133.133C11.1799 131.561 10.0882 130.191 8.68988 129.163L6.99344 127.911C5.23958 126.619 3.97903 124.797 3.4106 122.733C2.84217 120.669 2.99821 118.48 3.85411 116.511L4.67006 114.637C5.3543 113.065 5.59495 111.345 5.3673 109.653C5.13965 107.961 4.45191 106.358 3.37469 105.009L2.0747 103.385C0.729749 101.699 0 99.6273 0 97.4952C0 95.3631 0.729749 93.2914 2.0747 91.6052L3.37469 89.9818C4.45191 88.6327 5.13965 87.0298 5.3673 85.3377C5.59495 83.6455 5.3543 81.9251 4.67006 80.353L3.85411 78.4791C3.00051 76.5116 2.8457 74.3245 3.41404 72.2623C3.98239 70.2001 5.24162 68.3799 6.99344 67.0882L8.67144 65.8539C10.0694 64.8258 11.1608 63.4559 11.8339 61.8843C12.507 60.3127 12.7376 58.5958 12.5022 56.9093L12.2164 54.8789C11.918 52.7631 12.3541 50.6112 13.4559 48.7624C14.5577 46.9137 16.2625 45.4734 18.3015 44.6687L20.2515 43.9039C21.883 43.2586 23.308 42.2034 24.3799 40.8468C25.4518 39.4901 26.1319 37.881 26.3503 36.1848L26.6131 34.1499C26.8894 32.033 27.8837 30.0654 29.4394 28.557C30.995 27.0486 33.0237 26.085 35.2059 25.8181L37.2988 25.5632C39.044 25.3487 40.699 24.6877 42.094 23.6479C43.489 22.6082 44.5738 21.2271 45.237 19.6463L46.0299 17.7546C46.8578 15.7764 48.3415 14.1221 50.2465 13.0531C52.1515 11.984 54.3693 11.5611 56.5496 11.8512L58.6425 12.1285C60.3809 12.3573 62.1508 12.1337 63.7708 11.4807C65.3909 10.8277 66.8029 9.7686 67.8623 8.41199L69.1531 6.78409C70.485 5.08258 72.3629 3.85966 74.4905 3.30819C76.6182 2.75673 78.8745 2.90811 80.9036 3.73847L82.8352 4.53006C84.4556 5.19388 86.229 5.42734 87.9733 5.20649C89.7175 4.98564 91.3697 4.31843 92.7602 3.27335L94.4336 2.01217C96.1717 0.707369 98.3072 -0.000597 100.505 -0.000597C102.703 -0.000597 104.838 0.707369 106.576 2.01217L108.249 3.27335C109.64 4.31843 111.292 4.98564 113.036 5.20649C114.781 5.42734 116.554 5.19388 118.175 4.53006L120.106 3.73847C122.134 2.91035 124.388 2.76015 126.514 3.31154C128.64 3.86292 130.516 5.08456 131.847 6.78409L133.12 8.41199C134.179 9.76824 135.592 10.827 137.211 11.48C138.831 12.133 140.601 12.3568 142.339 12.1285L144.432 11.8512C146.613 11.5617 148.831 11.9847 150.737 13.0536C152.643 14.1225 154.127 15.7765 154.957 17.7546L155.745 19.6463C156.41 21.2292 157.498 22.6117 158.896 23.6516C160.295 24.6915 161.953 25.3513 163.702 25.5632L165.799 25.8181C167.981 26.0862 170.009 27.0508 171.564 28.56C173.119 30.0692 174.112 32.0373 174.387 34.1544L174.65 36.1848C174.871 37.8779 175.553 39.4835 176.624 40.8369C177.696 42.1902 179.12 43.2426 180.749 43.8861L182.699 44.6553C184.738 45.4585 186.443 46.8979 187.545 48.746C188.647 50.5941 189.083 52.7457 188.784 54.861L188.498 56.8914C188.262 58.5779 188.493 60.2949 189.166 61.8666C189.839 63.4383 190.931 64.8082 192.329 65.836L194.007 67.0703C195.761 68.3625 197.021 70.1843 197.59 72.2484C198.158 74.3126 198.002 76.5016 197.146 78.4701L196.33 80.344C195.646 81.9161 195.406 83.6366 195.633 85.3287C195.861 87.0209 196.549 88.6237 197.626 89.9728L198.926 91.5963C200.274 93.2836 201.006 95.358 201.006 97.4929C201.006 99.6279 200.274 101.702 198.926 103.39Z" fill="#34A853"/>
<path d="M78.3994 134.208L60.9326 117.263C60.5765 116.918 60.2939 116.509 60.1011 116.058C59.9084 115.607 59.8091 115.124 59.8091 114.635C59.8091 114.147 59.9084 113.664 60.1011 113.213C60.2939 112.762 60.5765 112.353 60.9326 112.008L64.1134 108.918C64.8324 108.222 65.8063 107.831 66.8217 107.831C67.8371 107.831 68.811 108.222 69.53 108.918L77.943 117.08C78.3105 117.436 78.749 117.717 79.2318 117.904C79.7145 118.091 80.2315 118.181 80.7512 118.168C81.2709 118.155 81.7824 118.039 82.2546 117.828C82.7268 117.617 83.1499 117.316 83.4979 116.941L131.385 65.398C131.722 65.0353 132.129 64.7406 132.582 64.5306C133.036 64.3206 133.529 64.1994 134.031 64.1741C134.533 64.1488 135.035 64.2197 135.509 64.3829C135.983 64.5461 136.419 64.7983 136.793 65.1252L140.14 68.0501C140.513 68.3767 140.816 68.7716 141.033 69.2121C141.249 69.6527 141.373 70.1302 141.399 70.6174C141.424 71.1046 141.351 71.592 141.182 72.0516C141.014 72.5112 140.753 72.9341 140.416 73.296L83.9543 134.07C83.6062 134.444 83.1832 134.746 82.711 134.957C82.2388 135.168 81.7272 135.284 81.2076 135.296C80.6879 135.309 80.1709 135.22 79.6881 135.033C79.2054 134.846 78.7669 134.565 78.3994 134.208Z" fill="white"/>
</g>
<defs>
<clipPath id="clip0_516_2182">
<rect width="201" height="195" fill="white"/>
</clipPath>
</defs>
</svg>
