<svg width="292" height="375" viewBox="0 0 292 375" fill="none" xmlns="http://www.w3.org/2000/svg">
<g clip-path="url(#clip0_513_1846)">
<path d="M247.851 66.4662L248.806 65.2417L250.551 62.9948V54.5151L248.622 45.6497C248.622 45.6497 253.245 45.6497 254.402 52.2069L255.945 54.1294C255.945 54.1294 264.424 43.7211 265.967 44.8782C267.51 46.0354 265.967 52.5926 265.967 52.5926C265.963 55.1811 265.705 57.7629 265.196 60.3009C264.424 63.3621 255.173 64.9234 255.173 64.9234L253.44 69.3561L247.851 66.4662Z" fill="#E5AE81"/>
<path d="M112.304 47.5843L111.79 46.1211L110.841 43.4455L113.51 35.3393L118.133 27.5331C118.133 27.5331 113.743 26.0759 110.577 31.929L108.508 33.276C108.508 33.276 103.738 20.7248 101.908 21.3371C100.077 21.9493 99.4588 28.6841 99.4588 28.6841C98.647 31.1429 98.0789 33.6755 97.7629 36.2454C97.5241 39.4169 105.814 43.7945 105.814 43.7945L106.065 48.5456L112.304 47.5843Z" fill="#E5AE81"/>
<path d="M89.3811 365.631C89.3811 365.631 163.096 350.019 241.146 369.096C241.146 369.096 161.376 382.976 89.3811 365.631Z" fill="white"/>
<path d="M145.997 69.2152C145.997 69.2152 138.215 73.3724 137.885 78.9133C137.554 84.4542 141.785 99.2523 141.785 99.2523C141.785 99.2523 154.336 77.0765 145.997 69.2152Z" fill="#7E474A"/>
<path d="M182.37 114.528C173.125 130.312 155.995 132.02 148.25 128.475C140.505 124.93 133.476 113.812 137.021 106.067C140.566 98.3217 141.025 92.1073 141.564 81.699C142.103 71.2907 152.193 66.1662 152.193 66.1662C152.193 66.1662 170.707 57.013 186.16 71.805C201.614 86.5971 182.37 114.528 182.37 114.528Z" fill="#E5AE81"/>
<path d="M182.805 108.308C182.805 108.308 192.95 98.9952 193.464 107.493C193.979 115.991 174.135 124.893 182.805 108.308Z" fill="#DA896F"/>
<path d="M180.142 85.1583C180.142 85.1583 180.754 99.2891 179.597 105.601C178.44 111.914 173.64 125.04 154.862 128.071C148.096 126.81 140.168 121.6 140.168 121.6C141.521 124.033 143.426 126.115 145.729 127.68C148.031 129.245 150.669 130.249 153.429 130.612C162.992 131.928 175.531 127.263 182.236 116.371C187.33 106.575 191.683 88.2502 191.683 88.2502L180.142 85.1583Z" fill="#DA896F"/>
<path d="M167.829 76.0908C167.829 76.0908 154.029 86.1562 148.164 80.1317C142.298 74.1071 131.266 58.0906 142.886 48.3252C154.507 38.5598 186.968 52.3477 195.613 73.5683C193.63 76.7031 190.795 76.8745 190.795 76.8745C190.795 76.8745 196.256 81.3929 196.048 86.2603C195.289 90.3196 188.315 105.136 188.315 105.136C188.315 105.136 183.748 107.089 179.774 113.353L177.325 111.516L185.719 92.7686L167.829 76.0908Z" fill="#7E474A"/>
<path d="M154.443 47.6823C154.443 47.6823 142.547 46.3966 141.396 55.0294C142.504 64.1091 183.286 70.7765 183.708 68.4989C184.131 66.2213 166.069 55.4028 167.961 55.2865C169.853 55.1702 184.718 63.0866 189.121 69.5091C188.355 66.1479 179.349 51.8702 154.443 47.6823Z" fill="#965C52"/>
<path d="M187.732 80.1561C187.732 80.1561 193.738 79.8745 192.936 86.0276C191.865 91.7828 189.091 91.6175 187.254 90.2215C185.418 88.8256 174.342 78.7051 179.014 79.9296C181.865 80.6619 184.846 80.7394 187.732 80.1561Z" fill="#965C52"/>
<path d="M158.461 92.7686C158.461 92.7686 167.535 93.7788 171.318 96.1543C171.361 94.1461 165.655 90.5889 163.592 90.1787C161.529 89.7685 158.461 92.7686 158.461 92.7686Z" fill="#7E474A"/>
<path d="M150.099 90.442C150.099 90.442 143.334 90.142 140.266 91.44C140.468 89.9706 145.06 88.0175 146.615 87.9502C148.171 87.8828 150.099 90.442 150.099 90.442Z" fill="#7E474A"/>
<path d="M163.035 99.2155C162.809 100.44 162.001 101.352 161.241 101.205C160.482 101.058 160.054 99.9441 160.286 98.7012C160.519 97.4584 161.321 96.5645 162.08 96.7053C162.839 96.8461 163.268 97.9727 163.035 99.2155Z" fill="#7E474A"/>
<path d="M146.778 96.1788C146.546 97.4033 145.744 98.3156 144.978 98.1748C144.213 98.034 143.791 96.9135 144.023 95.6645C144.256 94.4155 145.064 93.5339 145.823 93.6747C146.583 93.8155 147.011 94.9359 146.778 96.1788Z" fill="#7E474A"/>
<path d="M148.801 103.66L137.903 99.0502C137.903 99.0502 138.038 109.11 145.929 108.289C148.519 108.197 148.801 103.66 148.801 103.66Z" fill="#DA896F"/>
<path d="M125.558 222.774C125.558 222.774 141.942 343.614 141.942 358.651C141.36 358.651 144.832 359.227 144.832 359.227C144.832 359.227 142.517 362.698 136.156 365.007C131.534 367.321 150.036 365.588 152.35 363.849C151.769 362.117 148.297 358.07 148.297 358.07C149.454 356.913 147.483 248.262 147.483 248.262C147.483 248.262 173.161 328.002 177.208 362.141H176.632L180.679 364.456L173.161 370.241C173.161 370.241 185.596 370.241 186.171 367.352C185.596 364.462 185.014 362.147 185.014 362.147C185.014 362.147 167.767 234.934 166.414 223.913C159.287 218.146 125.558 222.774 125.558 222.774Z" fill="#283543"/>
<path d="M162.177 134.31C162.177 134.31 178.653 143.561 180.392 145.006C182.13 146.451 184.916 149.151 184.916 149.151L175.285 160.71C175.285 160.71 158.314 199.643 166.414 223.913C166.414 223.913 147.532 232.393 125.558 222.756C124.67 216.946 120.158 214.662 125.558 152.959C126.33 147.951 124.015 139.086 124.015 139.086L152.926 135.614L162.177 134.31Z" fill="#F2F3CD"/>
<path d="M151.769 128.236C151.769 128.236 152.927 134.022 149.749 138.357C150.325 138.645 154.084 140.959 154.084 140.959L162.465 136.912L161.021 128.236H151.769Z" fill="#DA896F"/>
<path d="M147.149 137.2C147.149 137.2 144.449 142.979 144.449 145.679C145.221 145.679 152.157 142.618 152.157 142.618L158.708 149.965C158.708 149.965 164.494 144.179 164.109 138.014C165.266 141.075 162.566 150.73 159.48 152.659C156.419 151.888 152.133 144.951 152.133 144.951L141.339 149.194C141.339 149.194 142.906 141.822 147.149 137.2Z" fill="#FF5963"/>
<path d="M148.304 145.581L149.173 151.655L154.953 148.759L152.155 142.594L148.304 145.581Z" fill="#FF5963"/>
<path d="M152.193 148.771C152.193 148.771 142.434 191.249 141.742 211.135L134.438 218.366L129.374 207.958C129.374 207.958 143.56 160.814 149.358 147.039C151.054 148.551 152.193 148.771 152.193 148.771Z" fill="#FF5963"/>
<path d="M142.134 205.301C143.273 192.958 146.463 175.961 148.949 163.833L144.014 161.8C139.636 174.737 134.487 191.317 131.616 200.678C135.087 202.178 138.889 203.843 142.134 205.301Z" fill="#FF5963"/>
<path d="M124.598 220.074C124.598 220.074 146.566 227.782 165.84 220.65C166.513 224.072 166.801 227.011 166.801 227.011C166.801 227.011 145.023 233.372 125.945 225.854C125.56 225.854 124.598 220.074 124.598 220.074Z" fill="#242C34"/>
<path d="M130.09 228.266L128.646 221.035L132.399 222.193L133.268 230.287C133.268 230.287 130.666 228.554 130.09 228.266Z" fill="#283543"/>
<path d="M157.408 229.135L159.14 222.48L155.093 223.062L154.224 231.156C154.224 231.156 156.826 229.423 157.408 229.135Z" fill="#283543"/>
<path d="M143.675 112.048C143.675 112.048 149.461 114.069 158.712 111.179C158.211 113.462 156.923 115.496 155.072 116.924C153.221 118.351 150.927 119.081 148.591 118.985C147.081 118.603 145.756 117.694 144.855 116.423C143.954 115.151 143.535 113.6 143.675 112.048Z" fill="#F2F3CD"/>
<path d="M175.285 160.71C175.285 160.71 233.584 88.0542 255.558 68.4009L249.197 62.6212C249.197 62.6212 215.082 88.6052 170.559 142.979L175.285 160.71Z" fill="#F2F3CD"/>
<path d="M134.718 140.09C134.718 138.357 116.216 76.4887 114.477 44.6884L104.069 47.0027C104.069 47.0027 104.681 88.6358 127.2 158.016C131.822 154.545 135.875 137.775 135.875 137.775" fill="#F2F3CD"/>
<path d="M240.062 283.7C240.062 283.7 257.327 281.201 263.493 267.456L255.533 258.101C255.533 258.101 246.05 271.975 234.46 271.363L240.062 283.7Z" fill="#FF5963" stroke="#272525" stroke-width="0.0612252" stroke-miterlimit="10"/>
<path d="M252.36 275.525C254.202 274.12 254.555 271.488 253.15 269.646C251.745 267.805 249.113 267.452 247.272 268.857C245.43 270.262 245.077 272.894 246.482 274.735C247.887 276.577 250.519 276.93 252.36 275.525Z" fill="white"/>
<path d="M242.724 279.885C243.41 279.977 243.906 280.497 243.833 281.012C243.751 281.295 243.562 281.536 243.306 281.682C243.05 281.828 242.747 281.869 242.461 281.795C241.775 281.697 241.279 281.183 241.353 280.669C241.436 280.386 241.625 280.147 241.881 280.001C242.136 279.854 242.439 279.813 242.724 279.885Z" fill="white"/>
<path d="M259.599 267.548C259.742 267.428 259.915 267.349 260.099 267.322C260.284 267.295 260.472 267.32 260.643 267.395C260.814 267.469 260.96 267.59 261.066 267.744C261.172 267.897 261.233 268.077 261.241 268.263C261.25 268.45 261.206 268.634 261.115 268.797C261.024 268.96 260.889 269.094 260.726 269.184C260.563 269.274 260.378 269.316 260.191 269.306C260.005 269.296 259.826 269.235 259.673 269.128C259.458 268.925 259.331 268.647 259.317 268.353C259.303 268.058 259.405 267.77 259.599 267.548Z" fill="white"/>
<path d="M254.271 260.881C254.383 260.779 254.522 260.712 254.67 260.686C254.819 260.66 254.972 260.677 255.112 260.735C255.251 260.794 255.371 260.89 255.458 261.014C255.545 261.138 255.594 261.284 255.601 261.435C255.608 261.585 255.572 261.735 255.496 261.866C255.421 261.997 255.31 262.104 255.177 262.175C255.043 262.245 254.892 262.276 254.741 262.264C254.591 262.251 254.447 262.196 254.326 262.105C254.165 261.945 254.07 261.731 254.06 261.504C254.05 261.277 254.125 261.055 254.271 260.881Z" fill="white"/>
<path d="M238.728 272.14C239.279 272.214 239.676 272.618 239.615 273.04C239.548 273.265 239.396 273.455 239.192 273.569C238.987 273.683 238.746 273.713 238.519 273.652C237.974 273.579 237.576 273.175 237.632 272.752C237.701 272.529 237.854 272.342 238.057 272.228C238.261 272.114 238.501 272.082 238.728 272.14Z" fill="white"/>
<path d="M233.856 228.866C233.856 228.866 223.815 214.601 208.753 215.329L204.014 226.662C204.014 226.662 220.68 228.842 225.376 239.452L233.856 228.866Z" fill="#FF5963" stroke="#272525" stroke-width="0.0612252" stroke-miterlimit="10"/>
<path d="M222.918 227.213C223.923 225.126 223.047 222.62 220.96 221.614C218.874 220.609 216.367 221.485 215.361 223.572C214.356 225.658 215.232 228.165 217.319 229.17C219.405 230.176 221.912 229.3 222.918 227.213Z" fill="white"/>
<path d="M229.245 228.199C229.231 228.013 229.27 227.827 229.357 227.662C229.443 227.497 229.574 227.359 229.735 227.265C229.895 227.171 230.079 227.123 230.265 227.128C230.452 227.132 230.633 227.189 230.789 227.291C230.944 227.394 231.068 227.538 231.146 227.707C231.225 227.876 231.254 228.064 231.231 228.249C231.208 228.433 231.133 228.608 231.016 228.753C230.899 228.898 230.744 229.007 230.568 229.068C230.277 229.123 229.977 229.063 229.731 228.901C229.484 228.739 229.31 228.487 229.245 228.199Z" fill="white"/>
<path d="M210.612 218.758C209.926 218.66 209.43 218.146 209.504 217.631C209.588 217.348 209.778 217.109 210.035 216.963C210.292 216.817 210.595 216.775 210.881 216.848C211.567 216.946 212.063 217.46 211.983 217.98C211.9 218.263 211.711 218.502 211.455 218.647C211.199 218.792 210.897 218.832 210.612 218.758Z" fill="white"/>
<path d="M207.074 226.527C206.529 226.454 206.137 226.05 206.198 225.633C206.264 225.409 206.415 225.22 206.618 225.105C206.822 224.991 207.062 224.961 207.288 225.021C207.833 225.095 208.231 225.499 208.17 225.915C208.103 226.14 207.951 226.329 207.746 226.444C207.541 226.558 207.3 226.588 207.074 226.527Z" fill="white"/>
<path d="M224.151 235.289C224.084 235.187 224.041 235.072 224.025 234.952C224.01 234.831 224.022 234.709 224.061 234.594C224.1 234.479 224.165 234.374 224.25 234.288C224.336 234.202 224.44 234.136 224.555 234.097C224.67 234.057 224.792 234.045 224.913 234.06C225.034 234.075 225.149 234.117 225.251 234.184C225.352 234.25 225.437 234.339 225.499 234.444C225.561 234.548 225.598 234.666 225.608 234.787C225.717 235.003 225.735 235.253 225.659 235.483C225.584 235.712 225.42 235.902 225.204 236.011C224.968 236.054 224.726 236.002 224.528 235.867C224.331 235.732 224.195 235.524 224.151 235.289Z" fill="white"/>
<path d="M270.155 201.872C270.155 201.872 286.931 197.072 291.192 182.623L282.045 174.425C282.045 174.425 274.508 189.443 262.943 190.392L270.155 201.872Z" fill="#FF5963" stroke="#272525" stroke-width="0.0612252" stroke-miterlimit="10"/>
<path d="M281.234 192.051C282.871 190.414 282.871 187.758 281.234 186.12C279.596 184.482 276.94 184.482 275.302 186.12C273.665 187.758 273.665 190.414 275.302 192.051C276.94 193.689 279.596 193.689 281.234 192.051Z" fill="white"/>
<path d="M272.279 197.702C272.463 197.745 272.63 197.839 272.762 197.973C272.895 198.106 272.986 198.275 273.027 198.458C273.068 198.642 273.056 198.833 272.993 199.011C272.929 199.188 272.817 199.343 272.669 199.459C272.521 199.576 272.343 199.648 272.156 199.667C271.969 199.686 271.78 199.653 271.612 199.57C271.443 199.486 271.301 199.357 271.203 199.197C271.104 199.037 271.053 198.852 271.055 198.664C271.099 198.378 271.25 198.12 271.477 197.941C271.705 197.763 271.992 197.677 272.279 197.702Z" fill="white"/>
<path d="M287.346 183.217C287.471 183.078 287.633 182.978 287.812 182.926C287.991 182.875 288.181 182.875 288.36 182.926C288.54 182.977 288.701 183.077 288.826 183.215C288.952 183.354 289.036 183.524 289.069 183.708C289.102 183.891 289.083 184.08 289.014 184.254C288.946 184.427 288.83 184.578 288.68 184.688C288.53 184.799 288.352 184.866 288.166 184.88C287.98 184.895 287.794 184.857 287.628 184.772C287.386 184.601 287.221 184.343 287.169 184.052C287.116 183.761 287.18 183.461 287.346 183.217Z" fill="white"/>
<path d="M281.168 177.321C281.266 177.21 281.394 177.13 281.536 177.088C281.678 177.047 281.829 177.046 281.972 177.087C282.114 177.127 282.242 177.206 282.342 177.316C282.441 177.426 282.508 177.561 282.534 177.707C282.56 177.852 282.545 178.003 282.49 178.14C282.435 178.277 282.343 178.397 282.223 178.484C282.104 178.572 281.962 178.624 281.814 178.634C281.667 178.645 281.519 178.614 281.388 178.545C281.202 178.408 281.076 178.204 281.035 177.977C280.994 177.749 281.041 177.514 281.168 177.321Z" fill="white"/>
<path d="M267.295 190.564C267.413 190.534 267.536 190.531 267.654 190.556C267.773 190.581 267.884 190.632 267.98 190.707C268.076 190.781 268.153 190.876 268.206 190.985C268.259 191.094 268.287 191.214 268.287 191.335C268.287 191.456 268.259 191.576 268.206 191.685C268.153 191.794 268.076 191.889 267.98 191.963C267.884 192.038 267.773 192.089 267.654 192.114C267.536 192.139 267.413 192.136 267.295 192.106C267.178 192.136 267.055 192.139 266.936 192.114C266.818 192.089 266.706 192.038 266.611 191.963C266.515 191.889 266.438 191.794 266.384 191.685C266.331 191.576 266.303 191.456 266.303 191.335C266.303 191.214 266.331 191.094 266.384 190.985C266.438 190.876 266.515 190.781 266.611 190.707C266.706 190.632 266.818 190.581 266.936 190.556C267.055 190.531 267.178 190.534 267.295 190.564Z" fill="white"/>
<path d="M228.405 144.094C228.405 144.094 245.548 147.43 255.883 136.483L251.45 125.022C251.45 125.022 237.92 134.996 227.181 130.593L228.405 144.094Z" fill="#FF5963" stroke="#272525" stroke-width="0.0612252" stroke-miterlimit="10"/>
<path d="M242.402 140.607C244.602 139.889 245.804 137.523 245.086 135.322C244.368 133.122 242.002 131.92 239.801 132.638C237.601 133.356 236.399 135.722 237.117 137.923C237.835 140.123 240.201 141.325 242.402 140.607Z" fill="white"/>
<path d="M232.176 141.369C232.316 141.493 232.418 141.654 232.471 141.833C232.524 142.012 232.525 142.203 232.475 142.383C232.425 142.563 232.326 142.725 232.188 142.851C232.05 142.977 231.88 143.062 231.696 143.097C231.512 143.131 231.323 143.113 231.149 143.044C230.975 142.976 230.824 142.86 230.713 142.71C230.601 142.56 230.534 142.382 230.519 142.196C230.504 142.01 230.542 141.823 230.627 141.657C230.798 141.417 231.055 141.253 231.344 141.2C231.633 141.146 231.931 141.207 232.176 141.369Z" fill="white"/>
<path d="M252.173 135.283C252.347 135.217 252.536 135.201 252.719 135.237C252.901 135.272 253.071 135.358 253.207 135.485C253.343 135.612 253.442 135.774 253.491 135.954C253.54 136.133 253.537 136.323 253.484 136.501C253.431 136.68 253.329 136.84 253.189 136.963C253.05 137.087 252.879 137.169 252.695 137.2C252.512 137.231 252.323 137.21 252.151 137.14C251.978 137.07 251.829 136.952 251.72 136.802C251.583 136.539 251.554 136.234 251.639 135.951C251.723 135.667 251.915 135.428 252.173 135.283Z" fill="white"/>
<path d="M249.344 127.232C249.481 127.183 249.629 127.173 249.772 127.203C249.915 127.233 250.046 127.302 250.152 127.402C250.258 127.502 250.334 127.63 250.372 127.771C250.41 127.911 250.408 128.06 250.367 128.2C250.326 128.339 250.247 128.465 250.138 128.563C250.03 128.66 249.897 128.726 249.754 128.753C249.61 128.779 249.462 128.766 249.326 128.713C249.19 128.661 249.071 128.572 248.983 128.457C248.926 128.353 248.89 128.238 248.877 128.12C248.864 128.002 248.875 127.883 248.909 127.769C248.942 127.656 248.998 127.55 249.073 127.457C249.147 127.365 249.24 127.289 249.344 127.232Z" fill="white"/>
<path d="M230.957 132.743C231.07 132.841 231.153 132.969 231.197 133.112C231.24 133.256 231.242 133.408 231.203 133.553C231.164 133.697 231.084 133.828 230.974 133.929C230.864 134.031 230.727 134.099 230.58 134.126C230.433 134.153 230.281 134.138 230.141 134.083C230.002 134.028 229.881 133.934 229.793 133.814C229.704 133.693 229.652 133.549 229.641 133.4C229.631 133.251 229.662 133.101 229.733 132.969C229.869 132.782 230.072 132.654 230.3 132.612C230.528 132.57 230.763 132.617 230.957 132.743Z" fill="white"/>
<path d="M212.444 42.1842C212.444 42.1842 216.387 59.1804 230.598 64.1641L239.255 55.4517C239.255 55.4517 224.634 47.1618 224.273 35.5597L212.444 42.1842Z" fill="#FF5963" stroke="#272525" stroke-width="0.0612252" stroke-miterlimit="10"/>
<path d="M227.58 54.0147C229.297 52.4594 229.427 49.8072 227.872 48.0907C226.317 46.3743 223.664 46.2437 221.948 47.7989C220.232 49.3542 220.101 52.0064 221.656 53.7229C223.211 55.4393 225.864 55.5699 227.58 54.0147Z" fill="white"/>
<path d="M216.476 44.5231C216.44 45.2149 215.98 45.7476 215.448 45.7476C215.159 45.6897 214.905 45.5218 214.738 45.2796C214.571 45.0373 214.505 44.7397 214.554 44.4496C214.519 44.3 214.518 44.1442 214.553 43.9945C214.588 43.8448 214.657 43.7051 214.755 43.5865C214.853 43.4678 214.976 43.3733 215.117 43.3103C215.257 43.2474 215.41 43.2177 215.563 43.2236C215.717 43.2294 215.867 43.2707 216.002 43.3442C216.137 43.4177 216.254 43.5213 216.342 43.6471C216.43 43.7729 216.488 43.9174 216.512 44.0694C216.535 44.2213 216.523 44.3766 216.476 44.5231Z" fill="white"/>
<path d="M230.179 60.2947C230.311 60.4266 230.403 60.5928 230.446 60.7744C230.488 60.956 230.478 61.1459 230.418 61.3224C230.358 61.4989 230.249 61.655 230.105 61.773C229.961 61.891 229.786 61.9662 229.601 61.9901C229.416 62.0139 229.228 61.9854 229.059 61.9079C228.889 61.8304 228.745 61.7069 228.642 61.5514C228.539 61.3959 228.481 61.2147 228.476 61.0283C228.471 60.8419 228.518 60.6577 228.612 60.4967C228.795 60.2655 229.062 60.1149 229.355 60.0772C229.647 60.0395 229.943 60.1175 230.179 60.2947Z" fill="white"/>
<path d="M236.378 54.4232C236.486 54.526 236.562 54.657 236.598 54.8012C236.634 54.9453 236.629 55.0967 236.583 55.2381C236.537 55.3794 236.452 55.5048 236.338 55.6C236.223 55.6952 236.085 55.7562 235.937 55.7761C235.79 55.796 235.64 55.7739 235.505 55.7124C235.37 55.6509 235.254 55.5525 235.173 55.4284C235.091 55.3044 235.046 55.1598 235.042 55.0112C235.039 54.8626 235.077 54.7161 235.154 54.5885C235.298 54.4098 235.505 54.2932 235.733 54.2625C235.961 54.2317 236.192 54.2892 236.378 54.4232Z" fill="white"/>
<path d="M223.857 39.8822C223.857 40.4332 223.459 40.868 223.037 40.8435C222.806 40.7959 222.602 40.6614 222.467 40.4676C222.333 40.2738 222.278 40.0357 222.314 39.8026C222.345 39.2516 222.712 38.8169 223.141 38.8414C223.371 38.8889 223.575 39.0237 223.708 39.2177C223.842 39.4117 223.895 39.6498 223.857 39.8822Z" fill="white"/>
<path d="M172.794 6.11645C172.794 6.11645 155.522 3.66744 145.745 15.1104L150.747 26.3269C150.747 26.3269 163.757 15.686 174.704 19.537L172.794 6.11645Z" fill="#FF5963" stroke="#272525" stroke-width="0.0612252" stroke-miterlimit="10"/>
<path d="M161.7 18.3868C163.862 17.5564 164.942 15.1303 164.111 12.9681C163.281 10.8058 160.855 9.72617 158.692 10.5566C156.53 11.3871 155.451 13.8131 156.281 15.9754C157.111 18.1376 159.538 19.2173 161.7 18.3868Z" fill="white"/>
<path d="M169.171 9.01237C169.026 8.89527 168.917 8.73983 168.855 8.56368C168.794 8.38754 168.783 8.19774 168.824 8.01582C168.865 7.83389 168.957 7.66712 169.088 7.53441C169.219 7.40171 169.384 7.30838 169.566 7.26502C169.747 7.22166 169.937 7.22999 170.114 7.28908C170.291 7.34818 170.448 7.45566 170.567 7.59934C170.686 7.74302 170.762 7.91714 170.787 8.10197C170.812 8.2868 170.784 8.47493 170.708 8.64502C170.547 8.89078 170.298 9.06573 170.013 9.13403C169.727 9.20232 169.426 9.1588 169.171 9.01237Z" fill="white"/>
<path d="M149.505 16.1145C149.335 16.188 149.148 16.2126 148.965 16.1855C148.782 16.1584 148.611 16.0808 148.47 15.9613C148.328 15.8418 148.224 15.6853 148.167 15.5093C148.11 15.3334 148.103 15.1451 148.148 14.9656C148.192 14.7861 148.286 14.6227 148.419 14.4937C148.551 14.3647 148.717 14.2753 148.898 14.2356C149.078 14.1959 149.266 14.2075 149.441 14.269C149.615 14.3306 149.769 14.4396 149.884 14.5839C150.032 14.8383 150.075 15.1404 150.005 15.4261C149.934 15.7118 149.754 15.9587 149.505 16.1145Z" fill="white"/>
<path d="M152.743 24.0127C152.608 24.0707 152.46 24.09 152.315 24.0683C152.169 24.0467 152.033 23.9849 151.921 23.89C151.809 23.7952 151.725 23.6709 151.68 23.5312C151.635 23.3915 151.629 23.2419 151.664 23.0992C151.699 22.9566 151.773 22.8265 151.878 22.7236C151.983 22.6207 152.114 22.549 152.257 22.5167C152.401 22.4844 152.55 22.4927 152.689 22.5406C152.828 22.5886 152.951 22.6743 153.043 22.7882C153.164 22.9909 153.2 23.2327 153.144 23.4617C153.087 23.6907 152.944 23.8885 152.743 24.0127Z" fill="white"/>
<path d="M170.822 17.584C170.706 17.4907 170.618 17.3669 170.569 17.2264C170.52 17.086 170.511 16.9345 170.544 16.7893C170.576 16.6441 170.649 16.511 170.753 16.405C170.858 16.299 170.99 16.2244 171.135 16.1896C171.279 16.1549 171.431 16.1614 171.572 16.2085C171.713 16.2556 171.838 16.3412 171.933 16.4558C172.028 16.5704 172.089 16.7093 172.109 16.8568C172.129 17.0043 172.107 17.1544 172.046 17.2901C171.92 17.4883 171.722 17.6297 171.493 17.6845C171.265 17.7393 171.024 17.7033 170.822 17.584Z" fill="white"/>
<path d="M95.6638 57.2946C95.6638 57.2946 78.3922 54.8456 68.6084 66.2947L73.6166 77.5112C73.6166 77.5112 86.6209 66.8641 97.5679 70.7152L95.6638 57.2946Z" fill="#FF5963" stroke="#272525" stroke-width="0.0612252" stroke-miterlimit="10"/>
<path d="M84.5606 69.565C86.7228 68.7345 87.8025 66.3085 86.972 64.1462C86.1416 61.9839 83.7155 60.9043 81.5533 61.7347C79.391 62.5652 78.3114 64.9912 79.1418 67.1535C79.9723 69.3158 82.3983 70.3954 84.5606 69.565Z" fill="white"/>
<path d="M92.0322 60.209C91.8871 60.0919 91.7776 59.9364 91.7163 59.7603C91.655 59.5842 91.6443 59.3944 91.6854 59.2124C91.7265 59.0305 91.8177 58.8637 91.9488 58.731C92.0798 58.5983 92.2454 58.505 92.4268 58.4616C92.6082 58.4183 92.7981 58.4266 92.975 58.4857C93.1519 58.5448 93.3088 58.6523 93.4277 58.796C93.5466 58.9396 93.6228 59.1138 93.6478 59.2986C93.6728 59.4834 93.6455 59.6716 93.569 59.8416C93.4112 60.091 93.1623 60.2689 92.8752 60.3375C92.5882 60.4061 92.2858 60.36 92.0322 60.209Z" fill="white"/>
<path d="M72.3731 67.2988C72.2027 67.3744 72.0145 67.4008 71.8299 67.375C71.6453 67.3492 71.4716 67.2721 71.3285 67.1527C71.1855 67.0332 71.0787 66.876 71.0204 66.699C70.962 66.5219 70.9544 66.3321 70.9984 66.151C71.0425 65.9698 71.1363 65.8046 71.2694 65.6741C71.4025 65.5436 71.5695 65.453 71.7514 65.4125C71.9334 65.372 72.1231 65.3833 72.2989 65.4451C72.4748 65.5068 72.6299 65.6166 72.7465 65.762C72.897 66.0163 72.9422 66.3193 72.8724 66.6064C72.8026 66.8935 72.6234 67.1419 72.3731 67.2988Z" fill="white"/>
<path d="M75.6052 75.197C75.4702 75.255 75.3218 75.2743 75.1765 75.2527C75.0312 75.231 74.8949 75.1693 74.7828 75.0744C74.6706 74.9795 74.5872 74.8552 74.5418 74.7155C74.4964 74.5758 74.4909 74.4262 74.5259 74.2835C74.5608 74.1409 74.6349 74.0108 74.7397 73.9079C74.8445 73.805 74.9759 73.7334 75.1192 73.701C75.2625 73.6687 75.412 73.677 75.5508 73.725C75.6897 73.7729 75.8124 73.8586 75.9052 73.9725C76.0239 74.1756 76.059 74.4169 76.003 74.6455C75.947 74.874 75.8044 75.0718 75.6052 75.197Z" fill="white"/>
<path d="M93.6894 68.7682C93.5682 68.7508 93.4527 68.7056 93.3518 68.6362C93.251 68.5668 93.1675 68.475 93.1079 68.3681C93.0482 68.2612 93.0141 68.142 93.008 68.0197C93.002 67.8974 93.0243 67.7754 93.0731 67.6631C93.1219 67.5508 93.196 67.4513 93.2895 67.3724C93.383 67.2934 93.4935 67.237 93.6124 67.2077C93.7312 67.1784 93.8553 67.1769 93.9748 67.2033C94.0943 67.2297 94.2062 67.2834 94.3016 67.3601C94.4228 67.3775 94.5383 67.4227 94.6391 67.4921C94.74 67.5615 94.8235 67.6533 94.8831 67.7602C94.9427 67.8671 94.9769 67.9864 94.9829 68.1086C94.9889 68.2309 94.9667 68.3529 94.9179 68.4652C94.869 68.5775 94.795 68.677 94.7015 68.7559C94.6079 68.8349 94.4974 68.8913 94.3786 68.9206C94.2597 68.9499 94.1357 68.9514 94.0161 68.925C93.8966 68.8986 93.7848 68.8449 93.6894 68.7682Z" fill="white"/>
<path d="M50.3026 136.3C50.3026 136.3 67.6539 134.463 74.309 120.92L66.6987 111.259C66.6987 111.259 56.7129 124.777 45.1536 123.742L50.3026 136.3Z" fill="#FF5963" stroke="#272525" stroke-width="0.0612252" stroke-miterlimit="10"/>
<path d="M62.8935 128.545C64.7846 127.207 65.2333 124.59 63.8959 122.699C62.5584 120.808 59.9411 120.359 58.0501 121.697C56.159 123.034 55.7102 125.651 57.0477 127.543C58.3851 129.434 61.0024 129.882 62.8935 128.545Z" fill="white"/>
<path d="M53.1055 132.583C53.2582 132.569 53.412 132.591 53.5551 132.645C53.6982 132.7 53.8267 132.788 53.9307 132.9C54.0346 133.013 54.1112 133.148 54.1545 133.295C54.1978 133.442 54.2066 133.597 54.1803 133.748C54.154 133.899 54.0933 134.042 54.0028 134.166C53.9123 134.29 53.7946 134.391 53.6586 134.462C53.5227 134.533 53.3723 134.571 53.219 134.575C53.0658 134.578 52.9138 134.546 52.7749 134.481C52.0892 134.359 51.6116 133.838 51.7034 133.318C51.7949 133.037 51.9928 132.802 52.2548 132.665C52.5168 132.528 52.8222 132.498 53.1055 132.583Z" fill="white"/>
<path d="M70.4119 120.871C70.5595 120.757 70.7362 120.686 70.9218 120.668C71.1073 120.649 71.2945 120.683 71.4619 120.765C71.6293 120.847 71.7704 120.975 71.869 121.133C71.9676 121.291 72.0199 121.474 72.0199 121.661C72.0199 121.847 71.9676 122.03 71.869 122.188C71.7704 122.347 71.6293 122.474 71.4619 122.556C71.2945 122.639 71.1073 122.672 70.9218 122.654C70.7362 122.635 70.5595 122.565 70.4119 122.451C70.2076 122.238 70.0935 121.955 70.0935 121.661C70.0935 121.366 70.2076 121.083 70.4119 120.871Z" fill="white"/>
<path d="M65.3309 114.008C65.4487 113.917 65.5895 113.861 65.7375 113.846C65.8854 113.832 66.0345 113.859 66.1679 113.924C66.3013 113.99 66.4137 114.091 66.4922 114.218C66.5708 114.344 66.6124 114.49 66.6124 114.638C66.6124 114.787 66.5708 114.933 66.4922 115.059C66.4137 115.185 66.3013 115.287 66.1679 115.352C66.0345 115.418 65.8854 115.445 65.7375 115.43C65.5895 115.416 65.4487 115.36 65.3309 115.269C65.1671 115.1 65.0754 114.874 65.0754 114.638C65.0754 114.403 65.1671 114.177 65.3309 114.008Z" fill="white"/>
<path d="M49.3897 124.728C49.9347 124.82 50.3204 125.236 50.2469 125.659C50.176 125.886 50.0195 126.077 49.8105 126.191C49.6014 126.306 49.3562 126.334 49.1265 126.271C48.5816 126.173 48.202 125.757 48.2755 125.34C48.3078 125.227 48.3624 125.12 48.4361 125.028C48.5098 124.935 48.6011 124.858 48.7048 124.802C48.8084 124.745 48.9223 124.709 49.0399 124.696C49.1575 124.684 49.2764 124.694 49.3897 124.728Z" fill="white"/>
<path d="M99.7727 182.451C99.7727 182.451 89.8359 168.112 74.7867 168.731L69.9622 180.027C69.9622 180.027 86.6093 182.329 91.2257 192.976L99.7727 182.451Z" fill="#FF5963" stroke="#272525" stroke-width="0.0612252" stroke-miterlimit="10"/>
<path d="M88.8542 180.75C89.8754 178.671 89.0179 176.158 86.9389 175.136C84.8599 174.115 82.3468 174.973 81.3256 177.052C80.3044 179.131 81.1619 181.644 83.2409 182.665C85.3199 183.686 87.8331 182.829 88.8542 180.75Z" fill="white"/>
<path d="M95.1671 181.772C95.1552 181.586 95.1956 181.4 95.2837 181.236C95.3717 181.072 95.5039 180.936 95.6653 180.843C95.8267 180.75 96.0108 180.704 96.1969 180.711C96.383 180.717 96.5637 180.775 96.7184 180.879C96.8731 180.983 96.9957 181.127 97.0724 181.297C97.1491 181.467 97.1768 181.655 97.1524 181.839C97.1279 182.024 97.0523 182.198 96.9341 182.342C96.8159 182.486 96.6598 182.594 96.4834 182.653C96.1925 182.706 95.8925 182.643 95.6468 182.479C95.4011 182.314 95.2291 182.061 95.1671 181.772Z" fill="white"/>
<path d="M76.6017 172.172C75.916 172.074 75.4262 171.559 75.5058 171.033C75.5924 170.751 75.7851 170.514 76.0432 170.371C76.3012 170.228 76.6046 170.191 76.8895 170.267C77.5691 170.372 78.065 170.88 77.9854 171.406C77.8988 171.688 77.7061 171.925 77.448 172.068C77.19 172.211 76.8866 172.248 76.6017 172.172Z" fill="white"/>
<path d="M73.0098 179.917C72.4649 179.837 72.0792 179.433 72.1404 179.01C72.206 178.785 72.3577 178.594 72.5628 178.48C72.7679 178.365 73.0099 178.336 73.2364 178.398C73.7813 178.478 74.1731 178.882 74.1119 179.298C74.0435 179.524 73.8907 179.714 73.6853 179.829C73.4798 179.944 73.2378 179.976 73.0098 179.917Z" fill="white"/>
<path d="M90.0177 188.807C90.007 188.657 90.0385 188.507 90.1087 188.374C90.1789 188.242 90.285 188.131 90.4148 188.056C90.5446 187.981 90.6929 187.943 90.8429 187.948C90.993 187.953 91.1387 187.999 91.2635 188.083C91.3882 188.166 91.4871 188.283 91.5488 188.42C91.6105 188.557 91.6326 188.708 91.6125 188.857C91.5924 189.006 91.531 189.146 91.4352 189.261C91.3394 189.377 91.2132 189.463 91.0707 189.511C90.8382 189.552 90.5985 189.502 90.402 189.371C90.2056 189.24 90.0678 189.037 90.0177 188.807Z" fill="white"/>
<path d="M97.824 132.075C97.824 132.075 107.008 146.904 122.081 147.051L127.475 136.03C127.475 136.03 110.945 132.883 106.891 122.016L97.824 132.075Z" fill="#FF5963" stroke="#272525" stroke-width="0.0612252" stroke-miterlimit="10"/>
<path d="M115.986 138.432C117.112 136.407 116.383 133.854 114.358 132.728C112.334 131.603 109.78 132.332 108.655 134.356C107.53 136.381 108.258 138.934 110.283 140.06C112.307 141.185 114.861 140.456 115.986 138.432Z" fill="white"/>
<path d="M102.385 132.969C102.387 133.155 102.337 133.338 102.241 133.498C102.144 133.657 102.005 133.786 101.839 133.871C101.673 133.955 101.486 133.991 101.301 133.975C101.115 133.959 100.938 133.891 100.789 133.78C100.64 133.668 100.525 133.517 100.457 133.343C100.389 133.17 100.372 132.981 100.406 132.798C100.44 132.615 100.525 132.445 100.651 132.307C100.776 132.17 100.938 132.07 101.117 132.02C101.41 131.985 101.705 132.063 101.942 132.24C102.178 132.417 102.336 132.678 102.385 132.969Z" fill="white"/>
<path d="M120.441 143.5C120.608 143.583 120.749 143.711 120.847 143.869C120.945 144.028 120.997 144.211 120.996 144.397C120.995 144.584 120.942 144.767 120.843 144.924C120.744 145.082 120.603 145.209 120.435 145.291C120.267 145.373 120.08 145.406 119.895 145.387C119.709 145.367 119.533 145.296 119.385 145.182C119.238 145.067 119.126 144.914 119.061 144.739C118.997 144.564 118.983 144.374 119.021 144.192C119.121 143.914 119.325 143.686 119.59 143.557C119.856 143.428 120.161 143.407 120.441 143.5Z" fill="white"/>
<path d="M124.421 135.945C124.544 135.935 124.667 135.955 124.781 136.001C124.895 136.047 124.997 136.119 125.079 136.212C125.16 136.304 125.219 136.414 125.251 136.533C125.282 136.652 125.286 136.777 125.262 136.897C125.237 137.018 125.185 137.131 125.109 137.228C125.033 137.325 124.936 137.404 124.825 137.457C124.713 137.51 124.591 137.536 124.468 137.534C124.345 137.532 124.224 137.501 124.115 137.445C123.995 137.45 123.875 137.429 123.765 137.381C123.654 137.333 123.556 137.261 123.478 137.17C123.399 137.078 123.343 136.97 123.313 136.854C123.283 136.737 123.279 136.616 123.304 136.498C123.328 136.38 123.378 136.269 123.452 136.174C123.525 136.079 123.619 136.001 123.727 135.948C123.835 135.895 123.953 135.867 124.074 135.866C124.194 135.865 124.313 135.892 124.421 135.945Z" fill="white"/>
<path d="M107.883 126.204C107.885 126.352 107.846 126.499 107.77 126.626C107.693 126.754 107.582 126.858 107.45 126.925C107.318 126.993 107.169 127.023 107.021 127.01C106.872 126.998 106.731 126.944 106.611 126.855C106.492 126.766 106.4 126.646 106.346 126.507C106.292 126.369 106.277 126.218 106.304 126.071C106.332 125.925 106.399 125.79 106.5 125.68C106.6 125.57 106.729 125.491 106.873 125.451C107.106 125.42 107.341 125.482 107.53 125.623C107.718 125.763 107.845 125.972 107.883 126.204Z" fill="white"/>
<path d="M30.1757 253.515C30.1757 253.515 46.6208 247.699 49.982 233.011L40.3513 225.389C40.3513 225.389 33.7573 240.848 22.2715 242.532L30.1757 253.515Z" fill="#FF5963" stroke="#272525" stroke-width="0.0612252" stroke-miterlimit="10"/>
<path d="M40.6402 243.036C42.1716 241.298 42.0044 238.648 40.2667 237.117C38.529 235.585 35.8789 235.752 34.3474 237.49C32.8159 239.228 32.9831 241.878 34.7208 243.409C36.4586 244.941 39.1087 244.774 40.6402 243.036Z" fill="white"/>
<path d="M32.0452 249.254C32.3345 249.203 32.6322 249.267 32.8755 249.431C33.1188 249.596 33.2887 249.848 33.3493 250.136C33.3861 250.668 32.8473 251.134 32.1615 251.177C32.0162 251.226 31.8616 251.241 31.7095 251.22C31.5575 251.2 31.4122 251.145 31.2849 251.059C31.1576 250.974 31.0518 250.86 30.9757 250.727C30.8995 250.594 30.8551 250.445 30.8458 250.291C30.8366 250.138 30.8627 249.985 30.9223 249.844C30.9818 249.702 31.0731 249.577 31.1891 249.476C31.3052 249.376 31.4427 249.304 31.5912 249.265C31.7397 249.227 31.895 249.223 32.0452 249.254Z" fill="white"/>
<path d="M46.186 233.862C46.3027 233.717 46.4577 233.607 46.6336 233.545C46.8095 233.483 46.9991 233.472 47.1811 233.512C47.3631 233.553 47.53 233.644 47.6631 233.774C47.7962 233.905 47.8901 234.07 47.9341 234.251C47.9781 234.432 47.9705 234.622 47.9122 234.799C47.8539 234.976 47.7471 235.133 47.604 235.253C47.4609 235.372 47.2872 235.449 47.1026 235.475C46.918 235.501 46.7299 235.474 46.5595 235.399C46.3103 235.241 46.1321 234.992 46.0625 234.706C45.9928 234.419 46.0371 234.117 46.186 233.862Z" fill="white"/>
<path d="M39.6598 228.364C39.7526 228.25 39.8753 228.164 40.0141 228.117C40.153 228.069 40.3024 228.06 40.4457 228.093C40.589 228.125 40.7204 228.197 40.8253 228.299C40.9301 228.402 41.0041 228.532 41.0391 228.675C41.074 228.818 41.0685 228.967 41.0231 229.107C40.9777 229.247 40.8943 229.371 40.7822 229.466C40.6701 229.561 40.5337 229.623 40.3884 229.644C40.2431 229.666 40.0947 229.647 39.9598 229.589C39.7594 229.464 39.6156 229.267 39.5595 229.038C39.5034 228.809 39.5394 228.567 39.6598 228.364Z" fill="white"/>
<path d="M26.6116 242.434C26.8439 242.395 27.0821 242.448 27.2769 242.58C27.4717 242.712 27.6084 242.914 27.6586 243.144C27.6586 243.572 27.2545 243.94 26.7035 243.977C26.471 244.017 26.2321 243.965 26.0369 243.832C25.8417 243.7 25.7053 243.497 25.6565 243.266C25.632 242.838 26.0667 242.47 26.6116 242.434Z" fill="white"/>
<path d="M90.129 278.857C90.129 278.857 106.58 273.034 109.942 258.352L100.311 250.73C100.311 250.73 93.7107 266.158 82.2249 267.842L90.129 278.857Z" fill="#FF5963" stroke="#272525" stroke-width="0.0612252" stroke-miterlimit="10"/>
<path d="M100.588 268.369C102.119 266.632 101.952 263.982 100.214 262.45C98.4765 260.919 95.8264 261.086 94.2949 262.824C92.7635 264.561 92.9307 267.211 94.6684 268.743C96.4061 270.274 99.0562 270.107 100.588 268.369Z" fill="white"/>
<path d="M91.9949 274.589C92.1774 274.626 92.346 274.713 92.4815 274.841C92.6171 274.969 92.7141 275.132 92.7618 275.312C92.8094 275.492 92.8057 275.682 92.7511 275.86C92.6965 276.038 92.5932 276.197 92.4528 276.32C92.3124 276.442 92.1406 276.523 91.9568 276.552C91.7729 276.582 91.5844 276.56 91.4126 276.488C91.2407 276.417 91.0923 276.298 90.9843 276.146C90.8762 275.995 90.8127 275.816 90.801 275.63C90.8261 275.335 90.9646 275.062 91.1874 274.868C91.4102 274.674 91.6997 274.574 91.9949 274.589Z" fill="white"/>
<path d="M106.14 259.203C106.256 259.058 106.411 258.948 106.586 258.885C106.762 258.823 106.952 258.811 107.134 258.851C107.315 258.891 107.483 258.981 107.616 259.111C107.75 259.241 107.844 259.406 107.889 259.587C107.933 259.767 107.927 259.957 107.869 260.134C107.811 260.312 107.705 260.469 107.563 260.589C107.42 260.709 107.247 260.787 107.063 260.814C106.878 260.84 106.69 260.815 106.519 260.74C106.268 260.584 106.088 260.336 106.017 260.049C105.946 259.762 105.99 259.458 106.14 259.203Z" fill="white"/>
<path d="M99.6121 253.699C99.6313 253.58 99.6775 253.467 99.747 253.369C99.8166 253.271 99.9078 253.189 100.014 253.132C100.119 253.074 100.237 253.041 100.357 253.036C100.477 253.031 100.597 253.053 100.708 253.101C100.818 253.15 100.916 253.222 100.994 253.314C101.072 253.406 101.128 253.515 101.157 253.631C101.187 253.748 101.189 253.87 101.165 253.988C101.14 254.106 101.088 254.216 101.014 254.311C100.998 254.434 100.954 254.55 100.885 254.653C100.815 254.755 100.724 254.839 100.616 254.9C100.509 254.961 100.389 254.995 100.266 255.002C100.143 255.008 100.02 254.986 99.9066 254.936C99.7936 254.887 99.6936 254.812 99.6145 254.717C99.5354 254.623 99.4794 254.511 99.4508 254.391C99.4223 254.271 99.422 254.146 99.45 254.026C99.4779 253.906 99.5335 253.794 99.6121 253.699Z" fill="white"/>
<path d="M86.5638 267.775C86.709 267.805 86.8429 267.875 86.9505 267.977C87.058 268.079 87.135 268.209 87.1726 268.352C87.2103 268.496 87.2071 268.647 87.1635 268.788C87.1199 268.93 87.0376 269.057 86.9258 269.154C86.8141 269.252 86.6773 269.316 86.531 269.34C86.3847 269.364 86.2346 269.346 86.0977 269.289C85.9607 269.233 85.8424 269.139 85.756 269.018C85.6696 268.898 85.6185 268.755 85.6086 268.607C85.629 268.372 85.7399 268.154 85.918 267.998C86.0962 267.843 86.3277 267.763 86.5638 267.775Z" fill="white"/>
<path d="M63.0427 333.965C63.0427 333.965 74.4367 347.202 89.3145 345.035L92.9451 333.304C92.9451 333.304 76.151 332.729 70.4571 322.62L63.0427 333.965Z" fill="#FF5963" stroke="#272525" stroke-width="0.0612252" stroke-miterlimit="10"/>
<path d="M81.9576 337.457C82.7585 335.283 81.646 332.872 79.4726 332.071C77.2993 331.27 74.8881 332.383 74.0872 334.556C73.2862 336.73 74.3988 339.141 76.5722 339.942C78.7456 340.743 81.1567 339.63 81.9576 337.457Z" fill="white"/>
<path d="M67.7009 334.167C67.7323 334.351 67.7116 334.54 67.6411 334.713C67.5706 334.886 67.4531 335.035 67.302 335.144C67.1508 335.254 66.9721 335.318 66.7861 335.331C66.6 335.344 66.4141 335.304 66.2494 335.217C66.0846 335.13 65.9477 334.998 65.8541 334.837C65.7605 334.675 65.7139 334.491 65.7197 334.305C65.7255 334.118 65.7834 333.937 65.8869 333.782C65.9903 333.627 66.1352 333.504 66.305 333.427C66.5883 333.344 66.8928 333.375 67.1535 333.513C67.4142 333.652 67.6106 333.886 67.7009 334.167Z" fill="white"/>
<path d="M87.1448 341.802C87.3231 341.857 87.4824 341.961 87.6045 342.103C87.7266 342.244 87.8067 342.416 87.8357 342.601C87.8646 342.785 87.8413 342.974 87.7683 343.146C87.6954 343.318 87.5757 343.465 87.4229 343.573C87.2701 343.68 87.0902 343.742 86.9039 343.752C86.7175 343.762 86.532 343.72 86.3685 343.63C86.205 343.54 86.07 343.406 85.9789 343.243C85.8877 343.08 85.8441 342.895 85.8529 342.708C85.9067 342.418 86.0721 342.161 86.3137 341.991C86.5553 341.822 86.8537 341.754 87.1448 341.802Z" fill="white"/>
<path d="M89.9193 333.727C90.0595 333.771 90.1845 333.854 90.2802 333.966C90.3758 334.078 90.4383 334.214 90.4606 334.36C90.4829 334.505 90.4642 334.654 90.4064 334.789C90.3487 334.925 90.2543 335.041 90.1339 335.126C90.0135 335.21 89.8719 335.259 89.7249 335.268C89.578 335.276 89.4317 335.243 89.3024 335.173C89.1732 335.103 89.0661 334.998 88.9934 334.87C88.9207 334.742 88.8851 334.596 88.8907 334.449C88.934 334.218 89.0658 334.014 89.258 333.879C89.4502 333.744 89.6875 333.689 89.9193 333.727Z" fill="white"/>
<path d="M72.0854 326.643C72.1065 326.789 72.0864 326.939 72.0273 327.074C71.9682 327.21 71.8725 327.326 71.7509 327.411C71.6292 327.495 71.4865 327.544 71.3388 327.551C71.191 327.559 71.044 327.525 70.9144 327.454C70.7847 327.383 70.6774 327.277 70.6047 327.148C70.5319 327.019 70.4964 326.873 70.5023 326.725C70.5082 326.577 70.5552 326.434 70.638 326.311C70.7208 326.188 70.8362 326.091 70.9711 326.031C71.2 325.966 71.4452 325.994 71.6537 326.108C71.8622 326.223 72.0172 326.415 72.0854 326.643Z" fill="white"/>
<path d="M202.538 356.625C202.538 356.625 213.901 369.862 228.81 367.694L232.446 355.957C232.446 355.957 215.646 355.388 209.952 345.274L202.538 356.625Z" fill="#FF5963" stroke="#272525" stroke-width="0.0612252" stroke-miterlimit="10"/>
<path d="M221.456 360.112C222.257 357.939 221.144 355.528 218.971 354.727C216.797 353.926 214.386 355.038 213.585 357.212C212.784 359.385 213.897 361.796 216.07 362.597C218.244 363.398 220.655 362.286 221.456 360.112Z" fill="white"/>
<path d="M207.191 356.827C207.222 357.011 207.201 357.199 207.13 357.371C207.059 357.543 206.942 357.692 206.791 357.801C206.64 357.91 206.462 357.975 206.276 357.988C206.091 358.001 205.905 357.962 205.74 357.875C205.576 357.788 205.439 357.657 205.345 357.496C205.251 357.335 205.204 357.151 205.209 356.965C205.214 356.779 205.271 356.598 205.374 356.443C205.476 356.288 205.62 356.164 205.789 356.086C206.073 356.002 206.379 356.032 206.641 356.17C206.903 356.309 207.101 356.545 207.191 356.827Z" fill="white"/>
<path d="M226.646 364.456C226.824 364.512 226.982 364.617 227.103 364.758C227.224 364.9 227.303 365.072 227.331 365.256C227.36 365.441 227.336 365.629 227.262 365.8C227.189 365.971 227.069 366.119 226.916 366.225C226.763 366.332 226.584 366.394 226.398 366.404C226.212 366.413 226.027 366.371 225.863 366.281C225.7 366.191 225.566 366.058 225.474 365.895C225.383 365.733 225.339 365.548 225.348 365.362C225.405 365.072 225.572 364.815 225.814 364.646C226.056 364.477 226.354 364.409 226.646 364.456Z" fill="white"/>
<path d="M229.422 356.386C229.967 356.386 230.402 356.772 230.377 357.194C230.333 357.424 230.2 357.628 230.009 357.763C229.817 357.898 229.58 357.953 229.349 357.917C228.804 357.917 228.369 357.525 228.394 357.102C228.438 356.873 228.571 356.669 228.763 356.536C228.955 356.402 229.191 356.348 229.422 356.386Z" fill="white"/>
<path d="M211.581 349.296C211.601 349.442 211.581 349.591 211.522 349.727C211.463 349.862 211.367 349.978 211.246 350.062C211.124 350.146 210.982 350.194 210.835 350.202C210.687 350.21 210.541 350.176 210.411 350.106C210.282 350.035 210.174 349.93 210.101 349.801C210.028 349.673 209.992 349.527 209.997 349.38C210.002 349.232 210.048 349.089 210.13 348.966C210.212 348.843 210.326 348.746 210.46 348.684C210.69 348.619 210.936 348.647 211.146 348.761C211.355 348.876 211.511 349.068 211.581 349.296Z" fill="white"/>
<path d="M169.948 304.253C169.948 304.253 181.311 317.496 196.22 315.328L199.85 303.592C199.85 303.592 183.056 303.022 177.362 292.908L169.948 304.253Z" fill="#FF5963" stroke="#272525" stroke-width="0.0612252" stroke-miterlimit="10"/>
<path d="M188.873 307.741C189.674 305.568 188.561 303.157 186.388 302.356C184.215 301.555 181.804 302.667 181.003 304.841C180.202 307.014 181.314 309.425 183.488 310.226C185.661 311.027 188.072 309.915 188.873 307.741Z" fill="white"/>
<path d="M174.599 304.455C174.631 304.639 174.611 304.828 174.542 305.001C174.472 305.174 174.355 305.324 174.204 305.435C174.054 305.545 173.875 305.61 173.689 305.624C173.503 305.637 173.316 305.599 173.151 305.512C172.986 305.425 172.848 305.293 172.754 305.132C172.66 304.971 172.613 304.786 172.618 304.6C172.624 304.413 172.681 304.232 172.785 304.076C172.888 303.921 173.033 303.797 173.203 303.72C173.485 303.637 173.789 303.667 174.05 303.804C174.31 303.942 174.507 304.175 174.599 304.455Z" fill="white"/>
<path d="M194.058 312.077C194.207 312.045 194.362 312.048 194.51 312.085C194.658 312.122 194.796 312.192 194.912 312.291C195.029 312.389 195.121 312.513 195.183 312.653C195.244 312.793 195.272 312.945 195.265 313.097C195.259 313.25 195.217 313.399 195.144 313.533C195.07 313.666 194.967 313.782 194.842 313.869C194.717 313.957 194.574 314.015 194.423 314.039C194.272 314.063 194.118 314.051 193.972 314.006C193.28 313.969 192.748 313.516 192.748 312.984C192.803 312.69 192.971 312.431 193.217 312.261C193.462 312.092 193.764 312.026 194.058 312.077Z" fill="white"/>
<path d="M196.832 304.014C197.383 304.014 197.812 304.406 197.794 304.828C197.838 305.038 197.816 305.257 197.73 305.453C197.644 305.65 197.499 305.815 197.315 305.925C197.131 306.035 196.917 306.084 196.703 306.067C196.489 306.049 196.286 305.965 196.123 305.826C195.959 305.688 195.843 305.501 195.79 305.293C195.738 305.085 195.751 304.866 195.83 304.666C195.908 304.467 196.047 304.296 196.226 304.179C196.406 304.062 196.618 304.005 196.832 304.014Z" fill="white"/>
<path d="M178.998 296.93C179.019 297.077 178.999 297.226 178.94 297.362C178.881 297.497 178.785 297.614 178.663 297.698C178.542 297.782 178.399 297.831 178.251 297.839C178.103 297.846 177.956 297.813 177.827 297.741C177.697 297.67 177.59 297.564 177.517 297.435C177.444 297.307 177.409 297.16 177.415 297.012C177.421 296.864 177.468 296.721 177.55 296.598C177.633 296.476 177.749 296.379 177.883 296.318C178.112 296.253 178.358 296.281 178.566 296.396C178.775 296.51 178.93 296.702 178.998 296.93Z" fill="white"/>
<path d="M164.816 195.431C164.816 195.431 181.346 189.841 184.904 175.227L175.377 167.469C175.377 167.469 168.569 182.837 157.064 184.337L164.816 195.431Z" fill="#FF5963" stroke="#272525" stroke-width="0.0612252" stroke-miterlimit="10"/>
<path d="M175.428 185.147C176.983 183.431 176.853 180.779 175.137 179.223C173.421 177.668 170.768 177.798 169.213 179.514C167.657 181.23 167.787 183.883 169.504 185.438C171.22 186.994 173.872 186.864 175.428 185.147Z" fill="white"/>
<path d="M166.737 191.194C166.918 191.237 167.083 191.328 167.214 191.459C167.346 191.59 167.438 191.755 167.481 191.936C167.523 192.116 167.515 192.305 167.457 192.481C167.398 192.657 167.292 192.813 167.149 192.932C167.007 193.051 166.834 193.128 166.651 193.154C166.467 193.18 166.28 193.155 166.11 193.08C165.94 193.006 165.794 192.886 165.689 192.733C165.583 192.581 165.522 192.402 165.513 192.217C165.542 191.92 165.687 191.646 165.916 191.455C166.145 191.264 166.44 191.17 166.737 191.194Z" fill="white"/>
<path d="M181.098 176.004C181.216 175.86 181.372 175.751 181.548 175.69C181.725 175.63 181.915 175.621 182.097 175.663C182.279 175.705 182.445 175.798 182.577 175.93C182.709 176.062 182.801 176.228 182.843 176.41C182.885 176.592 182.876 176.782 182.815 176.959C182.754 177.135 182.645 177.291 182.501 177.409C182.356 177.527 182.181 177.602 181.995 177.625C181.81 177.648 181.622 177.619 181.453 177.541C181.207 177.38 181.032 177.13 180.966 176.844C180.9 176.558 180.947 176.257 181.098 176.004Z" fill="white"/>
<path d="M174.643 170.408C174.738 170.293 174.862 170.206 175.003 170.158C175.144 170.11 175.296 170.102 175.441 170.136C175.586 170.17 175.719 170.243 175.824 170.349C175.929 170.454 176.003 170.587 176.036 170.733C176.07 170.878 176.062 171.029 176.013 171.17C175.964 171.311 175.877 171.436 175.762 171.529C175.646 171.623 175.506 171.683 175.358 171.701C175.21 171.719 175.06 171.696 174.925 171.633C174.73 171.504 174.592 171.305 174.54 171.077C174.487 170.849 174.524 170.61 174.643 170.408Z" fill="white"/>
<path d="M161.408 184.3C161.553 184.332 161.685 184.404 161.791 184.508C161.897 184.611 161.972 184.742 162.008 184.886C162.043 185.03 162.038 185.181 161.993 185.322C161.947 185.463 161.863 185.588 161.75 185.684C161.637 185.78 161.5 185.842 161.353 185.864C161.206 185.886 161.057 185.867 160.921 185.808C160.785 185.75 160.667 185.654 160.583 185.533C160.498 185.411 160.449 185.269 160.441 185.121C160.422 184.692 160.851 184.331 161.408 184.3Z" fill="white"/>
</g>
<defs>
<clipPath id="clip0_513_1846">
<rect width="291.23" height="374.356" fill="white"/>
</clipPath>
</defs>
</svg>
